<svg width="10" height="6" viewBox="0 0 10 6" fill="none" xmlns="http://www.w3.org/2000/svg">
<path d="M9.84016 0.493663L9.5126 0.163823C9.40951 0.0608137 9.27235 0.00406517 9.12577 0.00406517C8.97926 0.00406517 8.84194 0.0608137 8.73885 0.163823L5.00224 3.9006L1.26131 0.159676C1.15838 0.0566672 1.02107 0 0.87456 0C0.728055 0 0.590655 0.0566672 0.487646 0.159676L0.160001 0.487484C-0.0533338 0.700657 -0.0533338 1.0479 0.160001 1.26107L4.61402 5.73111C4.71695 5.83403 4.8541 5.90656 5.00191 5.90656H5.00362C5.1502 5.90656 5.28736 5.83395 5.39029 5.73111L9.84016 1.27318C9.94325 1.17025 9.99984 1.02895 10 0.882447C10 0.73586 9.94325 0.596509 9.84016 0.493663Z" fill="#0F4C82"/>
</svg>
