<svg width="30" height="30" viewBox="0 0 30 30" fill="none" xmlns="http://www.w3.org/2000/svg">
<rect width="30" height="30" fill="#F5F5F5"/>
<g clip-path="url(#clip0_0_1)">
<rect width="1920" height="1097" transform="translate(-917 -90)" fill="white"/>
<rect width="30" height="30" rx="3" fill="#0F4C82"/>
<path d="M13.9333 17.7583C14.2166 18.1125 14.7833 18.1125 15.0666 17.7583L19.3166 13.2958C19.6708 12.9417 19.3166 12.375 18.75 12.375H15.9166C15.9166 12.375 16.0583 9.11667 15.9166 7.41667C15.8458 6.6375 15.2791 6 14.5 6C13.7208 6 13.1541 6.6375 13.0833 7.41667C12.9416 9.04583 13.0833 12.375 13.0833 12.375H10.25C9.68331 12.375 9.32914 12.9417 9.68331 13.3667L13.9333 17.7583Z" fill="white"/>
<path d="M19.4583 19.4584H9.54167C8.7625 19.4584 8.125 20.0959 8.125 20.875C8.125 21.3 8.40833 21.5834 8.83333 21.5834H20.1667C20.5917 21.5834 20.875 21.3 20.875 20.875C20.875 20.0959 20.2375 19.4584 19.4583 19.4584Z" fill="white"/>
</g>
<defs>
<clipPath id="clip0_0_1">
<rect width="1920" height="1097" fill="white" transform="translate(-917 -90)"/>
</clipPath>
</defs>
</svg>
