<svg width="30" height="30" viewBox="0 0 30 30" fill="none" xmlns="http://www.w3.org/2000/svg">
<rect width="30" height="30" fill="#F5F5F5"/>
<g clip-path="url(#clip0_0_1)">
<rect width="1920" height="1097" transform="translate(-957 -90)" fill="white"/>
<rect width="30" height="30" rx="3" fill="#0F4C82"/>
<path d="M21.8392 9.27675C21.6634 8.89425 21.291 8.65625 20.8676 8.65625H8.13245C7.70904 8.65625 7.33663 8.89425 7.16026 9.27675C6.98548 9.65606 7.04604 10.0896 7.31804 10.4072L7.31857 10.4078L12.375 16.2908V20.875C12.375 21.071 12.4829 21.2511 12.6555 21.3436C12.7341 21.3855 12.8202 21.4062 12.9063 21.4062C13.0093 21.4062 13.1119 21.376 13.2011 21.317L16.3886 19.192C16.5363 19.0932 16.625 18.9274 16.625 18.75V16.2908L21.682 10.4078C21.954 10.0896 22.0145 9.65606 21.8392 9.27675Z" fill="white"/>
</g>
<defs>
<clipPath id="clip0_0_1">
<rect width="1920" height="1097" fill="white" transform="translate(-957 -90)"/>
</clipPath>
</defs>
</svg>
