<svg width="30" height="30" viewBox="0 0 30 30" fill="none" xmlns="http://www.w3.org/2000/svg">
<rect width="30" height="30" fill="#F5F5F5"/>
<g clip-path="url(#clip0_0_1)">
<rect width="1920" height="1097" transform="translate(-837 -90)" fill="white"/>
<rect width="30" height="30" rx="3" fill="#0F4C82"/>
<path d="M12.1675 19.9591L18.75 13.3766L15.6234 10.25L9.04088 16.8325C8.95025 16.9233 8.88588 17.0368 8.85458 17.1612L8.125 20.875L11.8381 20.1454C11.9627 20.1142 12.0768 20.0498 12.1675 19.9591ZM20.875 11.2516C21.1406 10.9859 21.2898 10.6256 21.2898 10.25C21.2898 9.87434 21.1406 9.51407 20.875 9.2484L19.7516 8.12499C19.4859 7.8594 19.1256 7.71021 18.75 7.71021C18.3744 7.71021 18.0141 7.8594 17.7484 8.12499L16.625 9.2484L19.7516 12.375L20.875 11.2516Z" fill="white"/>
</g>
<defs>
<clipPath id="clip0_0_1">
<rect width="1920" height="1097" fill="white" transform="translate(-837 -90)"/>
</clipPath>
</defs>
</svg>
