<svg width="30" height="30" viewBox="0 0 30 30" fill="none" xmlns="http://www.w3.org/2000/svg">
<rect width="30" height="30" fill="#F5F5F5"/>
<g clip-path="url(#clip0_0_1)">
<rect width="1920" height="1097" transform="translate(-797 -90)" fill="white"/>
<rect width="30" height="30" rx="3" fill="#0F4C82"/>
<path d="M20.875 13.4375H15.5625V8.125C15.5625 7.5385 15.0865 7.0625 14.5 7.0625C13.9135 7.0625 13.4375 7.5385 13.4375 8.125V13.4375H8.125C7.5385 13.4375 7.0625 13.9135 7.0625 14.5C7.0625 15.0865 7.5385 15.5625 8.125 15.5625H13.4375V20.875C13.4375 21.4615 13.9135 21.9375 14.5 21.9375C15.0865 21.9375 15.5625 21.4615 15.5625 20.875V15.5625H20.875C21.4615 15.5625 21.9375 15.0865 21.9375 14.5C21.9375 13.9135 21.4615 13.4375 20.875 13.4375Z" fill="white"/>
</g>
<defs>
<clipPath id="clip0_0_1">
<rect width="1920" height="1097" fill="white" transform="translate(-797 -90)"/>
</clipPath>
</defs>
</svg>
