<svg width="30" height="30" viewBox="0 0 30 30" fill="none" xmlns="http://www.w3.org/2000/svg">
<rect width="30" height="30" fill="#F5F5F5"/>
<g id="55-10 &#208;&#164;&#208;&#184;&#208;&#187;&#209;&#140;&#209;&#130;&#209;&#128;" clip-path="url(#clip0_0_1)">
<rect width="1920" height="1097" transform="translate(-1564 -15)" fill="white"/>
<path id="&#209;&#132;&#208;&#190;&#208;&#189; &#208;&#178;&#208;&#181;&#209;&#128;&#209;&#133;&#208;&#189;&#208;&#181;&#208;&#181; &#208;&#188;&#208;&#181;&#208;&#189;&#209;&#142;" d="M-1564 -15H356V45H-1564V-15Z" fill="#0F4C82"/>
<circle id="Ellipse 80" cx="15" cy="15" r="15" fill="white"/>
<g id="1564519_bell_new_note_notifications_icon 1">
<g id="icons">
<g id="notification">
<path id="Vector" d="M16.4167 21.6666H13.5C12.9167 21.6666 12.4167 22.3333 12.75 22.9166C13.25 23.6666 14.0833 24.1666 15 24.1666C15.9167 24.1666 16.75 23.6666 17.1667 22.9166C17.5 22.3333 17.0833 21.6666 16.4167 21.6666Z" fill="#0F4C82"/>
<path id="Vector_2" d="M23.1667 18.9166L22.8333 18.5C21.5 16.75 20.8333 14.6666 20.8333 12.4999V11.9166C20.8333 8.91662 18.6667 6.24995 15.6667 5.91662C12.1667 5.49995 9.16666 8.24995 9.16666 11.6666V12.4999C9.16666 14.6666 8.5 16.75 7.16666 18.5L6.83333 18.9166C6.66666 19.0833 6.58333 19.4166 6.66666 19.5833C6.91666 20.3333 7.58333 20.8333 8.33333 20.8333H21.6667C22.4167 20.8333 23.0833 20.3333 23.25 19.5833C23.3333 19.3333 23.25 19.0833 23.1667 18.9166Z" fill="#0F4C82"/>
</g>
</g>
<circle id="Ellipse 81" cx="18" cy="8" r="3" fill="#DE5050"/>
</g>
</g>
<defs>
<clipPath id="clip0_0_1">
<rect width="1920" height="1097" fill="white" transform="translate(-1564 -15)"/>
</clipPath>
</defs>
</svg>
