<svg width="30" height="30" viewBox="0 0 30 30" fill="none" xmlns="http://www.w3.org/2000/svg">
<rect width="30" height="30" fill="#F5F5F5"/>
<g clip-path="url(#clip0_0_1)">
<rect width="1920" height="1097" transform="translate(-1664 -15)" fill="white"/>
<path d="M-1664 -15H256V45H-1664V-15Z" fill="#0F4C82"/>
<circle cx="15" cy="15" r="15" fill="white"/>
<path d="M10.376 14.7861V15.9287H6.66504V14.7861H10.376ZM7.09961 11.8906V19H5.63477V11.8906H7.09961ZM11.4209 11.8906V19H9.96094V11.8906H11.4209ZM16.8164 16.6416H18.2764C18.2471 17.1201 18.1152 17.5449 17.8809 17.916C17.6497 18.2871 17.3258 18.5768 16.9092 18.7852C16.4958 18.9935 15.9977 19.0977 15.415 19.0977C14.9593 19.0977 14.5508 19.0195 14.1895 18.8633C13.8281 18.7038 13.5189 18.4759 13.2617 18.1797C13.0078 17.8835 12.8141 17.5254 12.6807 17.1055C12.5472 16.6855 12.4805 16.2152 12.4805 15.6943V15.2012C12.4805 14.6803 12.5488 14.21 12.6855 13.79C12.8255 13.3669 13.0241 13.0072 13.2812 12.7109C13.5417 12.4147 13.8525 12.1868 14.2139 12.0273C14.5752 11.8678 14.9788 11.7881 15.4248 11.7881C16.0173 11.7881 16.5169 11.8955 16.9238 12.1104C17.334 12.3252 17.6514 12.6214 17.876 12.999C18.1038 13.3766 18.2406 13.8063 18.2861 14.2881H16.8213C16.805 14.0016 16.748 13.7591 16.6504 13.5605C16.5527 13.3587 16.4046 13.2074 16.2061 13.1064C16.0107 13.0023 15.7503 12.9502 15.4248 12.9502C15.1807 12.9502 14.9674 12.9958 14.7852 13.0869C14.6029 13.1781 14.4499 13.3164 14.3262 13.502C14.2025 13.6875 14.1097 13.9219 14.0479 14.2051C13.9893 14.485 13.96 14.8138 13.96 15.1914V15.6943C13.96 16.0622 13.9876 16.3861 14.043 16.666C14.0983 16.9427 14.1829 17.1771 14.2969 17.3691C14.4141 17.5579 14.5638 17.7012 14.7461 17.7988C14.9316 17.8932 15.1546 17.9404 15.415 17.9404C15.721 17.9404 15.9733 17.8916 16.1719 17.7939C16.3704 17.6963 16.5218 17.5514 16.626 17.3594C16.7334 17.1673 16.7969 16.9281 16.8164 16.6416ZM20.6494 16.6953L23.5059 11.8906H24.9707V19H23.5059V14.1953L20.6494 19H19.1846V11.8906H20.6494V16.6953Z" fill="#0F4C82"/>
</g>
<defs>
<clipPath id="clip0_0_1">
<rect width="1920" height="1097" fill="white" transform="translate(-1664 -15)"/>
</clipPath>
</defs>
</svg>
