<svg width="30" height="30" viewBox="0 0 30 30" fill="none" xmlns="http://www.w3.org/2000/svg">
<rect width="30" height="30" fill="#F5F5F5"/>
<g id="55-10 &#208;&#164;&#208;&#184;&#208;&#187;&#209;&#140;&#209;&#130;&#209;&#128;" clip-path="url(#clip0_0_1)">
<rect width="1920" height="1097" transform="translate(-1614 -15)" fill="white"/>
<path id="&#209;&#132;&#208;&#190;&#208;&#189; &#208;&#178;&#208;&#181;&#209;&#128;&#209;&#133;&#208;&#189;&#208;&#181;&#208;&#181; &#208;&#188;&#208;&#181;&#208;&#189;&#209;&#142;" d="M-1614 -15H306V45H-1614V-15Z" fill="#0F4C82"/>
<circle id="Ellipse 83" cx="15" cy="15" r="15" fill="white"/>
<path id="Vector" d="M21.9286 14.4286H16.5714V9.07143C16.5714 8.48 16.0914 8 15.5 8C14.9086 8 14.4286 8.48 14.4286 9.07143V14.4286H9.07143C8.48 14.4286 8 14.9086 8 15.5C8 16.0914 8.48 16.5714 9.07143 16.5714H14.4286V21.9286C14.4286 22.52 14.9086 23 15.5 23C16.0914 23 16.5714 22.52 16.5714 21.9286V16.5714H21.9286C22.52 16.5714 23 16.0914 23 15.5C23 14.9086 22.52 14.4286 21.9286 14.4286Z" fill="#0F4C82"/>
</g>
<defs>
<clipPath id="clip0_0_1">
<rect width="1920" height="1097" fill="white" transform="translate(-1614 -15)"/>
</clipPath>
</defs>
</svg>
