<svg width="106" height="30" viewBox="0 0 106 30" fill="none" xmlns="http://www.w3.org/2000/svg">
<path d="M56.0996 15.2168H52.8389L52.8213 13.6084H55.6689C56.1494 13.6084 56.5566 13.5381 56.8906 13.3975C57.2305 13.251 57.4883 13.043 57.6641 12.7734C57.8398 12.498 57.9277 12.167 57.9277 11.7803C57.9277 11.3525 57.8457 11.0039 57.6816 10.7344C57.5176 10.4648 57.2656 10.2686 56.9258 10.1455C56.5918 10.0225 56.1641 9.96094 55.6426 9.96094H53.5068V21H51.3008V8.20312H55.6426C56.3457 8.20312 56.9727 8.27051 57.5234 8.40527C58.0801 8.54004 58.5518 8.75098 58.9385 9.03809C59.3311 9.31934 59.627 9.67676 59.8262 10.1104C60.0312 10.5439 60.1338 11.0596 60.1338 11.6572C60.1338 12.1846 60.0078 12.668 59.7559 13.1074C59.5039 13.541 59.1318 13.8955 58.6396 14.1709C58.1475 14.4463 57.5352 14.6104 56.8027 14.6631L56.0996 15.2168ZM56.0029 21H52.1445L53.1377 19.251H56.0029C56.501 19.251 56.917 19.1689 57.251 19.0049C57.585 18.835 57.834 18.6035 57.998 18.3105C58.168 18.0117 58.2529 17.6631 58.2529 17.2646C58.2529 16.8486 58.1797 16.4883 58.0332 16.1836C57.8867 15.873 57.6553 15.6357 57.3389 15.4717C57.0225 15.3018 56.6094 15.2168 56.0996 15.2168H53.6211L53.6387 13.6084H56.8643L57.3652 14.2148C58.0684 14.2383 58.6455 14.3936 59.0967 14.6807C59.5537 14.9678 59.8936 15.3398 60.1162 15.7969C60.3389 16.2539 60.4502 16.7461 60.4502 17.2734C60.4502 18.0879 60.2715 18.7705 59.9141 19.3213C59.5625 19.8721 59.0557 20.291 58.3936 20.5781C57.7314 20.8594 56.9346 21 56.0029 21ZM64.0361 14.5137H66.8398C67.6602 14.5137 68.3574 14.6514 68.9316 14.9268C69.5059 15.2021 69.9424 15.5859 70.2412 16.0781C70.5459 16.5645 70.6982 17.1211 70.6982 17.748C70.6982 18.2109 70.6133 18.6416 70.4434 19.04C70.2734 19.4326 70.0215 19.7754 69.6875 20.0684C69.3594 20.3613 68.9551 20.5898 68.4746 20.7539C68 20.918 67.4551 21 66.8398 21H62.6299V11.4902H64.7568V19.3213H66.8398C67.2617 19.3213 67.5986 19.248 67.8506 19.1016C68.1025 18.9551 68.2842 18.7646 68.3955 18.5303C68.5127 18.2959 68.5713 18.0469 68.5713 17.7832C68.5713 17.5137 68.5127 17.2588 68.3955 17.0186C68.2842 16.7783 68.1025 16.582 67.8506 16.4297C67.5986 16.2773 67.2617 16.2012 66.8398 16.2012H64.0361V14.5137ZM74.4424 11.4902V21H72.3242V11.4902H74.4424ZM78.5645 11.4902L80.375 14.6455L82.2207 11.4902H84.5498L81.667 16.1572L84.6641 21H82.335L80.4014 17.7129L78.4678 21H76.1299L79.1182 16.1572L76.2441 11.4902H78.5645ZM85.3496 16.3506V16.1484C85.3496 15.4629 85.4492 14.8271 85.6484 14.2412C85.8477 13.6494 86.1348 13.1367 86.5098 12.7031C86.8906 12.2637 87.3535 11.9238 87.8984 11.6836C88.4492 11.4375 89.0703 11.3145 89.7617 11.3145C90.459 11.3145 91.0801 11.4375 91.625 11.6836C92.1758 11.9238 92.6416 12.2637 93.0225 12.7031C93.4033 13.1367 93.6934 13.6494 93.8926 14.2412C94.0918 14.8271 94.1914 15.4629 94.1914 16.1484V16.3506C94.1914 17.0361 94.0918 17.6719 93.8926 18.2578C93.6934 18.8438 93.4033 19.3564 93.0225 19.7959C92.6416 20.2295 92.1787 20.5693 91.6338 20.8154C91.0889 21.0557 90.4707 21.1758 89.7793 21.1758C89.082 21.1758 88.458 21.0557 87.9072 20.8154C87.3623 20.5693 86.8994 20.2295 86.5186 19.7959C86.1377 19.3564 85.8477 18.8438 85.6484 18.2578C85.4492 17.6719 85.3496 17.0361 85.3496 16.3506ZM87.4678 16.1484V16.3506C87.4678 16.7783 87.5117 17.1826 87.5996 17.5635C87.6875 17.9443 87.8252 18.2783 88.0127 18.5654C88.2002 18.8525 88.4404 19.0781 88.7334 19.2422C89.0264 19.4062 89.375 19.4883 89.7793 19.4883C90.1719 19.4883 90.5117 19.4062 90.7988 19.2422C91.0918 19.0781 91.332 18.8525 91.5195 18.5654C91.707 18.2783 91.8447 17.9443 91.9326 17.5635C92.0264 17.1826 92.0732 16.7783 92.0732 16.3506V16.1484C92.0732 15.7266 92.0264 15.3281 91.9326 14.9531C91.8447 14.5723 91.7041 14.2354 91.5107 13.9424C91.3232 13.6494 91.083 13.4209 90.79 13.2568C90.5029 13.0869 90.1602 13.002 89.7617 13.002C89.3633 13.002 89.0176 13.0869 88.7246 13.2568C88.4375 13.4209 88.2002 13.6494 88.0127 13.9424C87.8252 14.2354 87.6875 14.5723 87.5996 14.9531C87.5117 15.3281 87.4678 15.7266 87.4678 16.1484ZM97.0566 11.4902H99.1748L99.0693 14.8389C99.04 15.8115 98.9287 16.6465 98.7354 17.3438C98.542 18.041 98.29 18.6299 97.9795 19.1104C97.6689 19.585 97.3174 19.9746 96.9248 20.2793C96.5381 20.584 96.1309 20.8242 95.7031 21H95.0791V19.3301L95.3779 19.3125C95.6299 19.043 95.8467 18.7734 96.0283 18.5039C96.2158 18.2285 96.374 17.9268 96.5029 17.5986C96.6318 17.2646 96.7314 16.875 96.8018 16.4297C96.8779 15.9844 96.9277 15.4541 96.9512 14.8389L97.0566 11.4902ZM97.6191 11.4902H103.648V21H101.539V13.2832H97.6191V11.4902ZM94.5957 19.3125H104.949V23.8301H102.831V21H96.7402V23.8301H94.5869L94.5957 19.3125Z" fill="white"/>
<g clip-path="url(#clip0_1_34)">
<path d="M15 0C6.7285 0 0 6.7285 0 15C0 23.2715 6.7285 30 15 30C23.2715 30 30 23.2715 30 15C30 6.7285 23.2715 0 15 0ZM14.375 25C13.341 25 12.5 24.159 12.5 23.125C12.5 22.0911 13.341 21.25 14.375 21.25C15.4089 21.25 16.25 22.0911 16.25 23.125C16.25 24.159 15.4089 25 14.375 25ZM16.25 17.3755V19.375C16.25 19.7205 15.9704 20 15.625 20H13.125C12.7795 20 12.5 19.7205 12.5 19.375V16.25C12.5 14.8719 13.6218 13.75 15 13.75C16.3782 13.75 17.5 12.6282 17.5 11.25C17.5 9.87182 16.3782 8.74998 15 8.74998C13.6218 8.74998 12.5 9.87182 12.5 11.25V11.875C12.5 12.2205 12.2204 12.5 11.875 12.5H9.375C9.02953 12.5 8.74998 12.2205 8.74998 11.875V11.25C8.74998 7.80393 11.5539 4.99998 15 4.99998C18.4461 4.99998 21.25 7.80398 21.25 11.25C21.25 14.2493 19.137 16.7908 16.25 17.3755Z" fill="white"/>
</g>
<defs>
<clipPath id="clip0_1_34">
<rect width="30" height="30" fill="white"/>
</clipPath>
</defs>
</svg>
