<svg width="30" height="30" viewBox="0 0 30 30" fill="none" xmlns="http://www.w3.org/2000/svg">
<path d="M29.6327 27.8694L22.4204 20.6571C24.2082 18.4776 25.2857 15.6857 25.2857 12.6429C25.2857 5.66327 19.6224 0 12.6429 0C5.65714 0 0 5.66327 0 12.6429C0 19.6224 5.65714 25.2857 12.6429 25.2857C15.6857 25.2857 18.4714 24.2143 20.651 22.4265L27.8633 29.6327C28.3531 30.1224 29.1429 30.1224 29.6327 29.6327C30.1224 29.149 30.1224 28.3531 29.6327 27.8694ZM12.6429 22.7694C7.05306 22.7694 2.5102 18.2265 2.5102 12.6429C2.5102 7.05918 7.05306 2.5102 12.6429 2.5102C18.2265 2.5102 22.7755 7.05918 22.7755 12.6429C22.7755 18.2265 18.2265 22.7694 12.6429 22.7694Z" fill="white"/>
</svg>
