<svg width="25" height="25" viewBox="0 0 25 25" fill="none" xmlns="http://www.w3.org/2000/svg">
<rect width="25" height="25" fill="#F5F5F5"/>
<g clip-path="url(#clip0_0_1)">
<rect width="1920" height="1097" transform="translate(-31 -710)" fill="white"/>
<g filter="url(#filter0_d_0_1)">
<rect x="-31" y="-650" width="337" height="1037" fill="white"/>
</g>
<circle cx="12.5" cy="12.5" r="12.5" fill="#0F4C82"/>
<path d="M8.04688 19.5312H7.10938C6.92289 19.5312 6.74405 19.4572 6.61219 19.3253C6.48033 19.1934 6.40625 19.0146 6.40625 18.8281V14.6094C6.40625 14.4229 6.48033 14.2441 6.61219 14.1122C6.74405 13.9803 6.92289 13.9062 7.10938 13.9062H8.04688C8.23336 13.9062 8.4122 13.9803 8.54406 14.1122C8.67592 14.2441 8.75 14.4229 8.75 14.6094V18.8281C8.75 19.0146 8.67592 19.1934 8.54406 19.3253C8.4122 19.4572 8.23336 19.5312 8.04688 19.5312Z" fill="white"/>
<path d="M14.6094 19.5312H13.6719C13.4854 19.5312 13.3066 19.4572 13.1747 19.3253C13.0428 19.1934 12.9688 19.0146 12.9688 18.8281V11.7969C12.9688 11.6104 13.0428 11.4316 13.1747 11.2997C13.3066 11.1678 13.4854 11.0938 13.6719 11.0938H14.6094C14.7959 11.0938 14.9747 11.1678 15.1066 11.2997C15.2384 11.4316 15.3125 11.6104 15.3125 11.7969V18.8281C15.3125 19.0146 15.2384 19.1934 15.1066 19.3253C14.9747 19.4572 14.7959 19.5312 14.6094 19.5312Z" fill="white"/>
<path d="M17.8906 19.5312H16.9531C16.7666 19.5312 16.5878 19.4572 16.4559 19.3253C16.3241 19.1934 16.25 19.0146 16.25 18.8281V8.51562C16.25 8.32914 16.3241 8.1503 16.4559 8.01844C16.5878 7.88658 16.7666 7.8125 16.9531 7.8125H17.8906C18.0771 7.8125 18.2559 7.88658 18.3878 8.01844C18.5197 8.1503 18.5938 8.32914 18.5938 8.51562V18.8281C18.5938 19.0146 18.5197 19.1934 18.3878 19.3253C18.2559 19.4572 18.0771 19.5312 17.8906 19.5312Z" fill="white"/>
<path d="M11.3281 19.5312H10.3906C10.2041 19.5312 10.0253 19.4572 9.89344 19.3253C9.76158 19.1934 9.6875 19.0146 9.6875 18.8281V6.17188C9.6875 5.98539 9.76158 5.80655 9.89344 5.67469C10.0253 5.54283 10.2041 5.46875 10.3906 5.46875H11.3281C11.5146 5.46875 11.6934 5.54283 11.8253 5.67469C11.9572 5.80655 12.0312 5.98539 12.0312 6.17188V18.8281C12.0312 19.0146 11.9572 19.1934 11.8253 19.3253C11.6934 19.4572 11.5146 19.5312 11.3281 19.5312Z" fill="white"/>
</g>
<g clip-path="url(#clip1_0_1)">
<rect width="1920" height="1097" transform="translate(-31 -710)" fill="white"/>
<g filter="url(#filter1_d_0_1)">
<rect x="-31" y="-650" width="337" height="1037" fill="white"/>
</g>
<circle cx="12.5" cy="12.5" r="12.5" fill="#0F4C82"/>
<path d="M8.04688 19.5312H7.10938C6.92289 19.5312 6.74405 19.4572 6.61219 19.3253C6.48033 19.1934 6.40625 19.0146 6.40625 18.8281V14.6094C6.40625 14.4229 6.48033 14.2441 6.61219 14.1122C6.74405 13.9803 6.92289 13.9062 7.10938 13.9062H8.04688C8.23336 13.9062 8.4122 13.9803 8.54406 14.1122C8.67592 14.2441 8.75 14.4229 8.75 14.6094V18.8281C8.75 19.0146 8.67592 19.1934 8.54406 19.3253C8.4122 19.4572 8.23336 19.5312 8.04688 19.5312Z" fill="white"/>
<path d="M14.6094 19.5312H13.6719C13.4854 19.5312 13.3066 19.4572 13.1747 19.3253C13.0428 19.1934 12.9688 19.0146 12.9688 18.8281V11.7969C12.9688 11.6104 13.0428 11.4316 13.1747 11.2997C13.3066 11.1678 13.4854 11.0938 13.6719 11.0938H14.6094C14.7959 11.0938 14.9747 11.1678 15.1066 11.2997C15.2384 11.4316 15.3125 11.6104 15.3125 11.7969V18.8281C15.3125 19.0146 15.2384 19.1934 15.1066 19.3253C14.9747 19.4572 14.7959 19.5312 14.6094 19.5312Z" fill="white"/>
<path d="M17.8906 19.5312H16.9531C16.7666 19.5312 16.5878 19.4572 16.4559 19.3253C16.3241 19.1934 16.25 19.0146 16.25 18.8281V8.51562C16.25 8.32914 16.3241 8.1503 16.4559 8.01844C16.5878 7.88658 16.7666 7.8125 16.9531 7.8125H17.8906C18.0771 7.8125 18.2559 7.88658 18.3878 8.01844C18.5197 8.1503 18.5938 8.32914 18.5938 8.51562V18.8281C18.5938 19.0146 18.5197 19.1934 18.3878 19.3253C18.2559 19.4572 18.0771 19.5312 17.8906 19.5312Z" fill="white"/>
<path d="M11.3281 19.5312H10.3906C10.2041 19.5312 10.0253 19.4572 9.89344 19.3253C9.76158 19.1934 9.6875 19.0146 9.6875 18.8281V6.17188C9.6875 5.98539 9.76158 5.80655 9.89344 5.67469C10.0253 5.54283 10.2041 5.46875 10.3906 5.46875H11.3281C11.5146 5.46875 11.6934 5.54283 11.8253 5.67469C11.9572 5.80655 12.0312 5.98539 12.0312 6.17188V18.8281C12.0312 19.0146 11.9572 19.1934 11.8253 19.3253C11.6934 19.4572 11.5146 19.5312 11.3281 19.5312Z" fill="white"/>
</g>
<defs>
<filter id="filter0_d_0_1" x="-40" y="-655" width="355" height="1055" filterUnits="userSpaceOnUse" color-interpolation-filters="sRGB">
<feFlood flood-opacity="0" result="BackgroundImageFix"/>
<feColorMatrix in="SourceAlpha" type="matrix" values="0 0 0 0 0 0 0 0 0 0 0 0 0 0 0 0 0 0 127 0" result="hardAlpha"/>
<feOffset dy="4"/>
<feGaussianBlur stdDeviation="4.5"/>
<feColorMatrix type="matrix" values="0 0 0 0 0 0 0 0 0 0 0 0 0 0 0 0 0 0 0.25 0"/>
<feBlend mode="normal" in2="BackgroundImageFix" result="effect1_dropShadow_0_1"/>
<feBlend mode="normal" in="SourceGraphic" in2="effect1_dropShadow_0_1" result="shape"/>
</filter>
<filter id="filter1_d_0_1" x="-40" y="-655" width="355" height="1055" filterUnits="userSpaceOnUse" color-interpolation-filters="sRGB">
<feFlood flood-opacity="0" result="BackgroundImageFix"/>
<feColorMatrix in="SourceAlpha" type="matrix" values="0 0 0 0 0 0 0 0 0 0 0 0 0 0 0 0 0 0 127 0" result="hardAlpha"/>
<feOffset dy="4"/>
<feGaussianBlur stdDeviation="4.5"/>
<feColorMatrix type="matrix" values="0 0 0 0 0 0 0 0 0 0 0 0 0 0 0 0 0 0 0.25 0"/>
<feBlend mode="normal" in2="BackgroundImageFix" result="effect1_dropShadow_0_1"/>
<feBlend mode="normal" in="SourceGraphic" in2="effect1_dropShadow_0_1" result="shape"/>
</filter>
<clipPath id="clip0_0_1">
<rect width="1920" height="1097" fill="white" transform="translate(-31 -710)"/>
</clipPath>
<clipPath id="clip1_0_1">
<rect width="1920" height="1097" fill="white" transform="translate(-31 -710)"/>
</clipPath>
</defs>
</svg>
