<svg width="10" height="6" viewBox="0 0 10 6" fill="none" xmlns="http://www.w3.org/2000/svg">
<path d="M9.84016 4.74699L9.5126 5.03626C9.40951 5.1266 9.27235 5.17637 9.12577 5.17637C8.97926 5.17637 8.84194 5.1266 8.73885 5.03626L5.00224 1.75914L1.26131 5.0399C1.15838 5.13023 1.02107 5.17993 0.87456 5.17993C0.728055 5.17993 0.590655 5.13023 0.487646 5.0399L0.160001 4.75241C-0.0533338 4.56546 -0.0533338 4.26094 0.160001 4.07399L4.61402 0.153799C4.71695 0.0635324 4.8541 -6.81877e-05 5.00191 -6.81877e-05H5.00362C5.1502 -6.81877e-05 5.28736 0.0636039 5.39029 0.153799L9.84016 4.06336C9.94325 4.15363 9.99984 4.27755 10 4.40603C10 4.53459 9.94325 4.6568 9.84016 4.74699Z" fill="#AAAAAA"/>
</svg>
