<svg width="25" height="25" viewBox="0 0 25 25" fill="none" xmlns="http://www.w3.org/2000/svg">
<rect width="25" height="25" fill="#F5F5F5"/>
<g clip-path="url(#clip0_0_1)">
<rect width="1920" height="1097" transform="translate(-31 -196)" fill="white"/>
<g filter="url(#filter0_d_0_1)">
<rect x="-31" y="-136" width="337" height="1037" fill="white"/>
</g>
<circle cx="12.5" cy="12.5" r="12.5" fill="#0F4C82"/>
<path d="M18.125 7.1065C17.6181 6.71392 16.9091 6.83404 16.54 7.3731L11.2695 15.084L8.36617 11.9405C7.93843 11.4542 7.22066 11.4307 6.76363 11.8877C6.3066 12.3419 6.28316 13.1065 6.71382 13.5899C6.71382 13.5899 10.2412 17.504 10.748 17.8965C11.2548 18.2891 11.9638 18.169 12.333 17.6299L18.3769 8.79107C18.746 8.24908 18.6318 7.49615 18.125 7.1065Z" fill="white"/>
</g>
<g clip-path="url(#clip1_0_1)">
<rect width="1920" height="1097" transform="translate(-31 -196)" fill="white"/>
<g filter="url(#filter1_d_0_1)">
<rect x="-31" y="-136" width="337" height="1037" fill="white"/>
</g>
<circle cx="12.5" cy="12.5" r="12.5" fill="#0F4C82"/>
<path d="M18.125 7.1065C17.6181 6.71392 16.9091 6.83404 16.54 7.3731L11.2695 15.084L8.36617 11.9405C7.93843 11.4542 7.22066 11.4307 6.76363 11.8877C6.3066 12.3419 6.28316 13.1065 6.71382 13.5899C6.71382 13.5899 10.2412 17.504 10.748 17.8965C11.2548 18.2891 11.9638 18.169 12.333 17.6299L18.3769 8.79107C18.746 8.24908 18.6318 7.49615 18.125 7.1065Z" fill="white"/>
</g>
<defs>
<filter id="filter0_d_0_1" x="-40" y="-141" width="355" height="1055" filterUnits="userSpaceOnUse" color-interpolation-filters="sRGB">
<feFlood flood-opacity="0" result="BackgroundImageFix"/>
<feColorMatrix in="SourceAlpha" type="matrix" values="0 0 0 0 0 0 0 0 0 0 0 0 0 0 0 0 0 0 127 0" result="hardAlpha"/>
<feOffset dy="4"/>
<feGaussianBlur stdDeviation="4.5"/>
<feColorMatrix type="matrix" values="0 0 0 0 0 0 0 0 0 0 0 0 0 0 0 0 0 0 0.25 0"/>
<feBlend mode="normal" in2="BackgroundImageFix" result="effect1_dropShadow_0_1"/>
<feBlend mode="normal" in="SourceGraphic" in2="effect1_dropShadow_0_1" result="shape"/>
</filter>
<filter id="filter1_d_0_1" x="-40" y="-141" width="355" height="1055" filterUnits="userSpaceOnUse" color-interpolation-filters="sRGB">
<feFlood flood-opacity="0" result="BackgroundImageFix"/>
<feColorMatrix in="SourceAlpha" type="matrix" values="0 0 0 0 0 0 0 0 0 0 0 0 0 0 0 0 0 0 127 0" result="hardAlpha"/>
<feOffset dy="4"/>
<feGaussianBlur stdDeviation="4.5"/>
<feColorMatrix type="matrix" values="0 0 0 0 0 0 0 0 0 0 0 0 0 0 0 0 0 0 0.25 0"/>
<feBlend mode="normal" in2="BackgroundImageFix" result="effect1_dropShadow_0_1"/>
<feBlend mode="normal" in="SourceGraphic" in2="effect1_dropShadow_0_1" result="shape"/>
</filter>
<clipPath id="clip0_0_1">
<rect width="1920" height="1097" fill="white" transform="translate(-31 -196)"/>
</clipPath>
<clipPath id="clip1_0_1">
<rect width="1920" height="1097" fill="white" transform="translate(-31 -196)"/>
</clipPath>
</defs>
</svg>
