<svg width="25" height="25" viewBox="0 0 25 25" fill="none" xmlns="http://www.w3.org/2000/svg">
<rect width="25" height="25" fill="#F5F5F5"/>
<g clip-path="url(#clip0_0_1)">
<rect width="1920" height="1097" transform="translate(-31 -146)" fill="white"/>
<g filter="url(#filter0_d_0_1)">
<rect x="-31" y="-86" width="337" height="1037" fill="white"/>
</g>
<circle cx="12.5" cy="12.5" r="12.5" fill="#0F4C82"/>
<g clip-path="url(#clip1_0_1)">
<path d="M14.7511 8.3563C14.6842 8.28932 14.5948 8.25244 14.4995 8.25244C14.4042 8.25244 14.3149 8.28932 14.2479 8.3563L8.0378 14.5663C7.91183 14.6923 7.77119 14.9347 7.72422 15.1066L7.01302 17.7144C6.98985 17.7994 6.99932 17.8754 7.0398 17.9285C7.07503 17.9746 7.13152 18 7.19868 18C7.22626 18 7.25566 17.9958 7.28609 17.9875L9.89383 17.2763C10.0657 17.2294 10.3081 17.0888 10.4341 16.9627L16.6442 10.7527C16.7112 10.6857 16.748 10.5963 16.748 10.5011C16.748 10.4058 16.7112 10.3165 16.6442 10.2495L14.7511 8.3563Z" fill="white"/>
<path d="M18.5122 6.48826C18.1974 6.17338 17.7787 6 17.3335 6C16.8882 6 16.4696 6.17338 16.1547 6.48826L15.8881 6.75492C15.7581 6.88493 15.694 7.00805 15.6977 7.12086C15.7005 7.21115 15.7468 7.25986 15.752 7.26511L17.7136 9.22668C17.7163 9.22944 17.7814 9.29314 17.8949 9.29318C17.895 9.29318 17.895 9.29318 17.895 9.29318C18.0077 9.29318 18.1257 9.23238 18.2456 9.11246L18.5122 8.8458C19.1622 8.19577 19.1622 7.13825 18.5122 6.48826Z" fill="white"/>
</g>
</g>
<g clip-path="url(#clip2_0_1)">
<rect width="1920" height="1097" transform="translate(-31 -146)" fill="white"/>
<g filter="url(#filter1_d_0_1)">
<rect x="-31" y="-86" width="337" height="1037" fill="white"/>
</g>
<circle cx="12.5" cy="12.5" r="12.5" fill="#0F4C82"/>
<g clip-path="url(#clip3_0_1)">
<path d="M14.7511 8.3563C14.6842 8.28932 14.5948 8.25244 14.4995 8.25244C14.4042 8.25244 14.3149 8.28932 14.2479 8.3563L8.0378 14.5663C7.91183 14.6923 7.77119 14.9347 7.72422 15.1066L7.01302 17.7144C6.98985 17.7994 6.99932 17.8754 7.0398 17.9285C7.07503 17.9746 7.13152 18 7.19868 18C7.22626 18 7.25566 17.9958 7.28609 17.9875L9.89383 17.2763C10.0657 17.2294 10.3081 17.0888 10.4341 16.9627L16.6442 10.7527C16.7112 10.6857 16.748 10.5963 16.748 10.5011C16.748 10.4058 16.7112 10.3165 16.6442 10.2495L14.7511 8.3563Z" fill="white"/>
<path d="M18.5122 6.48826C18.1974 6.17338 17.7787 6 17.3335 6C16.8882 6 16.4696 6.17338 16.1547 6.48826L15.8881 6.75492C15.7581 6.88493 15.694 7.00805 15.6977 7.12086C15.7005 7.21115 15.7468 7.25986 15.752 7.26511L17.7136 9.22668C17.7163 9.22944 17.7814 9.29314 17.8949 9.29318C17.895 9.29318 17.895 9.29318 17.895 9.29318C18.0077 9.29318 18.1257 9.23238 18.2456 9.11246L18.5122 8.8458C19.1622 8.19577 19.1622 7.13825 18.5122 6.48826Z" fill="white"/>
</g>
</g>
<defs>
<filter id="filter0_d_0_1" x="-40" y="-91" width="355" height="1055" filterUnits="userSpaceOnUse" color-interpolation-filters="sRGB">
<feFlood flood-opacity="0" result="BackgroundImageFix"/>
<feColorMatrix in="SourceAlpha" type="matrix" values="0 0 0 0 0 0 0 0 0 0 0 0 0 0 0 0 0 0 127 0" result="hardAlpha"/>
<feOffset dy="4"/>
<feGaussianBlur stdDeviation="4.5"/>
<feColorMatrix type="matrix" values="0 0 0 0 0 0 0 0 0 0 0 0 0 0 0 0 0 0 0.25 0"/>
<feBlend mode="normal" in2="BackgroundImageFix" result="effect1_dropShadow_0_1"/>
<feBlend mode="normal" in="SourceGraphic" in2="effect1_dropShadow_0_1" result="shape"/>
</filter>
<filter id="filter1_d_0_1" x="-40" y="-91" width="355" height="1055" filterUnits="userSpaceOnUse" color-interpolation-filters="sRGB">
<feFlood flood-opacity="0" result="BackgroundImageFix"/>
<feColorMatrix in="SourceAlpha" type="matrix" values="0 0 0 0 0 0 0 0 0 0 0 0 0 0 0 0 0 0 127 0" result="hardAlpha"/>
<feOffset dy="4"/>
<feGaussianBlur stdDeviation="4.5"/>
<feColorMatrix type="matrix" values="0 0 0 0 0 0 0 0 0 0 0 0 0 0 0 0 0 0 0.25 0"/>
<feBlend mode="normal" in2="BackgroundImageFix" result="effect1_dropShadow_0_1"/>
<feBlend mode="normal" in="SourceGraphic" in2="effect1_dropShadow_0_1" result="shape"/>
</filter>
<clipPath id="clip0_0_1">
<rect width="1920" height="1097" fill="white" transform="translate(-31 -146)"/>
</clipPath>
<clipPath id="clip1_0_1">
<rect width="12" height="12" fill="white" transform="translate(7 6)"/>
</clipPath>
<clipPath id="clip2_0_1">
<rect width="1920" height="1097" fill="white" transform="translate(-31 -146)"/>
</clipPath>
<clipPath id="clip3_0_1">
<rect width="12" height="12" fill="white" transform="translate(7 6)"/>
</clipPath>
</defs>
</svg>
