<svg width="25" height="25" viewBox="0 0 25 25" fill="none" xmlns="http://www.w3.org/2000/svg">
<rect width="25" height="25" fill="#F5F5F5"/>
<g clip-path="url(#clip0_0_1)">
<rect width="1920" height="1097" transform="translate(-31 -510)" fill="white"/>
<g filter="url(#filter0_d_0_1)">
<rect x="-31" y="-450" width="337" height="1037" fill="white"/>
</g>
<circle cx="12.5" cy="12.5" r="12.5" fill="#0F4C82"/>
<path d="M13.75 8.74998V6.25623C13.7875 6.28748 13.825 6.32498 13.8563 6.35623L17.3937 9.89373C17.425 9.92498 17.4625 9.96248 17.4937 9.99998H15C14.6688 9.99899 14.3514 9.86697 14.1172 9.63277C13.883 9.39856 13.751 9.08119 13.75 8.74998Z" fill="white"/>
<path d="M18.0875 11.25H15C14.337 11.25 13.7011 10.9866 13.2322 10.5178C12.7634 10.0489 12.5 9.41304 12.5 8.75V5.6625C12.3639 5.63763 12.2258 5.62508 12.0875 5.625H8.75C8.25272 5.625 7.77581 5.82254 7.42417 6.17417C7.07254 6.52581 6.875 7.00272 6.875 7.5V17.5C6.875 17.9973 7.07254 18.4742 7.42417 18.8258C7.77581 19.1775 8.25272 19.375 8.75 19.375H16.25C16.7473 19.375 17.2242 19.1775 17.5758 18.8258C17.9275 18.4742 18.125 17.9973 18.125 17.5V11.6625C18.1249 11.5242 18.1124 11.3861 18.0875 11.25ZM9.375 13.75H11.875C12.0408 13.75 12.1997 13.8158 12.3169 13.9331C12.4342 14.0503 12.5 14.2092 12.5 14.375C12.5 14.5408 12.4342 14.6997 12.3169 14.8169C12.1997 14.9342 12.0408 15 11.875 15H9.375C9.20924 15 9.05027 14.9342 8.93306 14.8169C8.81585 14.6997 8.75 14.5408 8.75 14.375C8.75 14.2092 8.81585 14.0503 8.93306 13.9331C9.05027 13.8158 9.20924 13.75 9.375 13.75ZM15.625 17.5H9.375C9.20924 17.5 9.05027 17.4342 8.93306 17.3169C8.81585 17.1997 8.75 17.0408 8.75 16.875C8.75 16.7092 8.81585 16.5503 8.93306 16.4331C9.05027 16.3158 9.20924 16.25 9.375 16.25H15.625C15.7908 16.25 15.9497 16.3158 16.0669 16.4331C16.1842 16.5503 16.25 16.7092 16.25 16.875C16.25 17.0408 16.1842 17.1997 16.0669 17.3169C15.9497 17.4342 15.7908 17.5 15.625 17.5Z" fill="white"/>
</g>
<g clip-path="url(#clip1_0_1)">
<rect width="1920" height="1097" transform="translate(-31 -510)" fill="white"/>
<g filter="url(#filter1_d_0_1)">
<rect x="-31" y="-450" width="337" height="1037" fill="white"/>
</g>
<circle cx="12.5" cy="12.5" r="12.5" fill="#0F4C82"/>
<path d="M13.75 8.74998V6.25623C13.7875 6.28748 13.825 6.32498 13.8563 6.35623L17.3937 9.89373C17.425 9.92498 17.4625 9.96248 17.4937 9.99998H15C14.6688 9.99899 14.3514 9.86697 14.1172 9.63277C13.883 9.39856 13.751 9.08119 13.75 8.74998Z" fill="white"/>
<path d="M18.0875 11.25H15C14.337 11.25 13.7011 10.9866 13.2322 10.5178C12.7634 10.0489 12.5 9.41304 12.5 8.75V5.6625C12.3639 5.63763 12.2258 5.62508 12.0875 5.625H8.75C8.25272 5.625 7.77581 5.82254 7.42417 6.17417C7.07254 6.52581 6.875 7.00272 6.875 7.5V17.5C6.875 17.9973 7.07254 18.4742 7.42417 18.8258C7.77581 19.1775 8.25272 19.375 8.75 19.375H16.25C16.7473 19.375 17.2242 19.1775 17.5758 18.8258C17.9275 18.4742 18.125 17.9973 18.125 17.5V11.6625C18.1249 11.5242 18.1124 11.3861 18.0875 11.25ZM9.375 13.75H11.875C12.0408 13.75 12.1997 13.8158 12.3169 13.9331C12.4342 14.0503 12.5 14.2092 12.5 14.375C12.5 14.5408 12.4342 14.6997 12.3169 14.8169C12.1997 14.9342 12.0408 15 11.875 15H9.375C9.20924 15 9.05027 14.9342 8.93306 14.8169C8.81585 14.6997 8.75 14.5408 8.75 14.375C8.75 14.2092 8.81585 14.0503 8.93306 13.9331C9.05027 13.8158 9.20924 13.75 9.375 13.75ZM15.625 17.5H9.375C9.20924 17.5 9.05027 17.4342 8.93306 17.3169C8.81585 17.1997 8.75 17.0408 8.75 16.875C8.75 16.7092 8.81585 16.5503 8.93306 16.4331C9.05027 16.3158 9.20924 16.25 9.375 16.25H15.625C15.7908 16.25 15.9497 16.3158 16.0669 16.4331C16.1842 16.5503 16.25 16.7092 16.25 16.875C16.25 17.0408 16.1842 17.1997 16.0669 17.3169C15.9497 17.4342 15.7908 17.5 15.625 17.5Z" fill="white"/>
</g>
<defs>
<filter id="filter0_d_0_1" x="-40" y="-455" width="355" height="1055" filterUnits="userSpaceOnUse" color-interpolation-filters="sRGB">
<feFlood flood-opacity="0" result="BackgroundImageFix"/>
<feColorMatrix in="SourceAlpha" type="matrix" values="0 0 0 0 0 0 0 0 0 0 0 0 0 0 0 0 0 0 127 0" result="hardAlpha"/>
<feOffset dy="4"/>
<feGaussianBlur stdDeviation="4.5"/>
<feColorMatrix type="matrix" values="0 0 0 0 0 0 0 0 0 0 0 0 0 0 0 0 0 0 0.25 0"/>
<feBlend mode="normal" in2="BackgroundImageFix" result="effect1_dropShadow_0_1"/>
<feBlend mode="normal" in="SourceGraphic" in2="effect1_dropShadow_0_1" result="shape"/>
</filter>
<filter id="filter1_d_0_1" x="-40" y="-455" width="355" height="1055" filterUnits="userSpaceOnUse" color-interpolation-filters="sRGB">
<feFlood flood-opacity="0" result="BackgroundImageFix"/>
<feColorMatrix in="SourceAlpha" type="matrix" values="0 0 0 0 0 0 0 0 0 0 0 0 0 0 0 0 0 0 127 0" result="hardAlpha"/>
<feOffset dy="4"/>
<feGaussianBlur stdDeviation="4.5"/>
<feColorMatrix type="matrix" values="0 0 0 0 0 0 0 0 0 0 0 0 0 0 0 0 0 0 0.25 0"/>
<feBlend mode="normal" in2="BackgroundImageFix" result="effect1_dropShadow_0_1"/>
<feBlend mode="normal" in="SourceGraphic" in2="effect1_dropShadow_0_1" result="shape"/>
</filter>
<clipPath id="clip0_0_1">
<rect width="1920" height="1097" fill="white" transform="translate(-31 -510)"/>
</clipPath>
<clipPath id="clip1_0_1">
<rect width="1920" height="1097" fill="white" transform="translate(-31 -510)"/>
</clipPath>
</defs>
</svg>
