<svg width="25" height="25" viewBox="0 0 25 25" fill="none" xmlns="http://www.w3.org/2000/svg">
<rect width="25" height="25" fill="#F5F5F5"/>
<g clip-path="url(#clip0_0_1)">
<rect width="1920" height="1097" transform="translate(-31 -246)" fill="white"/>
<g filter="url(#filter0_d_0_1)">
<rect x="-31" y="-186" width="337" height="1037" fill="white"/>
</g>
<circle cx="12.5" cy="12.5" r="12.5" fill="#0F4C82"/>
<path d="M18.5673 9.5493L15.4506 6.43264C15.3441 6.3261 15.2001 6.2666 15.05 6.2666H10.2333C9.60714 6.2666 9.09998 6.77377 9.09998 7.39993V17.5999C9.09998 18.2261 9.60714 18.7333 10.2333 18.7333H17.6C18.2261 18.7333 18.7333 18.2261 18.7333 17.5999V9.94993C18.7333 9.79977 18.6738 9.65583 18.5673 9.5493ZM14.7666 15.8999H11.9333C11.6205 15.8999 11.3666 15.6461 11.3666 15.3333C11.3666 15.0205 11.6205 14.7666 11.9333 14.7666H14.7666C15.0794 14.7666 15.3333 15.0205 15.3333 15.3333C15.3333 15.6461 15.0794 15.8999 14.7666 15.8999ZM15.9 13.6333H11.9333C11.6205 13.6333 11.3666 13.3794 11.3666 13.0666C11.3666 12.7538 11.6205 12.4999 11.9333 12.4999H15.9C16.2128 12.4999 16.4666 12.7538 16.4666 13.0666C16.4666 13.3794 16.2128 13.6333 15.9 13.6333ZM15.3333 10.2333C15.0205 10.2333 14.7666 9.9794 14.7666 9.6666V7.34553L17.6544 10.2333H15.3333Z" fill="white"/>
<path d="M7.96672 17.5999V7.39993C7.96672 6.98513 8.08686 6.6015 8.28179 6.2666H7.40006C6.77389 6.2666 6.26672 6.77377 6.26672 7.39993V17.5999C6.26672 18.2261 6.77389 18.7333 7.40006 18.7333H8.28179C8.08686 18.3984 7.96672 18.0147 7.96672 17.5999Z" fill="white"/>
</g>
<g clip-path="url(#clip1_0_1)">
<rect width="1920" height="1097" transform="translate(-31 -246)" fill="white"/>
<g filter="url(#filter1_d_0_1)">
<rect x="-31" y="-186" width="337" height="1037" fill="white"/>
</g>
<circle cx="12.5" cy="12.5" r="12.5" fill="#0F4C82"/>
<path d="M18.5673 9.5493L15.4506 6.43264C15.3441 6.3261 15.2001 6.2666 15.05 6.2666H10.2333C9.60714 6.2666 9.09998 6.77377 9.09998 7.39993V17.5999C9.09998 18.2261 9.60714 18.7333 10.2333 18.7333H17.6C18.2261 18.7333 18.7333 18.2261 18.7333 17.5999V9.94993C18.7333 9.79977 18.6738 9.65583 18.5673 9.5493ZM14.7666 15.8999H11.9333C11.6205 15.8999 11.3666 15.6461 11.3666 15.3333C11.3666 15.0205 11.6205 14.7666 11.9333 14.7666H14.7666C15.0794 14.7666 15.3333 15.0205 15.3333 15.3333C15.3333 15.6461 15.0794 15.8999 14.7666 15.8999ZM15.9 13.6333H11.9333C11.6205 13.6333 11.3666 13.3794 11.3666 13.0666C11.3666 12.7538 11.6205 12.4999 11.9333 12.4999H15.9C16.2128 12.4999 16.4666 12.7538 16.4666 13.0666C16.4666 13.3794 16.2128 13.6333 15.9 13.6333ZM15.3333 10.2333C15.0205 10.2333 14.7666 9.9794 14.7666 9.6666V7.34553L17.6544 10.2333H15.3333Z" fill="white"/>
<path d="M7.96672 17.5999V7.39993C7.96672 6.98513 8.08686 6.6015 8.28179 6.2666H7.40006C6.77389 6.2666 6.26672 6.77377 6.26672 7.39993V17.5999C6.26672 18.2261 6.77389 18.7333 7.40006 18.7333H8.28179C8.08686 18.3984 7.96672 18.0147 7.96672 17.5999Z" fill="white"/>
</g>
<defs>
<filter id="filter0_d_0_1" x="-40" y="-191" width="355" height="1055" filterUnits="userSpaceOnUse" color-interpolation-filters="sRGB">
<feFlood flood-opacity="0" result="BackgroundImageFix"/>
<feColorMatrix in="SourceAlpha" type="matrix" values="0 0 0 0 0 0 0 0 0 0 0 0 0 0 0 0 0 0 127 0" result="hardAlpha"/>
<feOffset dy="4"/>
<feGaussianBlur stdDeviation="4.5"/>
<feColorMatrix type="matrix" values="0 0 0 0 0 0 0 0 0 0 0 0 0 0 0 0 0 0 0.25 0"/>
<feBlend mode="normal" in2="BackgroundImageFix" result="effect1_dropShadow_0_1"/>
<feBlend mode="normal" in="SourceGraphic" in2="effect1_dropShadow_0_1" result="shape"/>
</filter>
<filter id="filter1_d_0_1" x="-40" y="-191" width="355" height="1055" filterUnits="userSpaceOnUse" color-interpolation-filters="sRGB">
<feFlood flood-opacity="0" result="BackgroundImageFix"/>
<feColorMatrix in="SourceAlpha" type="matrix" values="0 0 0 0 0 0 0 0 0 0 0 0 0 0 0 0 0 0 127 0" result="hardAlpha"/>
<feOffset dy="4"/>
<feGaussianBlur stdDeviation="4.5"/>
<feColorMatrix type="matrix" values="0 0 0 0 0 0 0 0 0 0 0 0 0 0 0 0 0 0 0.25 0"/>
<feBlend mode="normal" in2="BackgroundImageFix" result="effect1_dropShadow_0_1"/>
<feBlend mode="normal" in="SourceGraphic" in2="effect1_dropShadow_0_1" result="shape"/>
</filter>
<clipPath id="clip0_0_1">
<rect width="1920" height="1097" fill="white" transform="translate(-31 -246)"/>
</clipPath>
<clipPath id="clip1_0_1">
<rect width="1920" height="1097" fill="white" transform="translate(-31 -246)"/>
</clipPath>
</defs>
</svg>
